<svg width="20" height="20" viewBox="0 0 20 20" fill="none" xmlns="http://www.w3.org/2000/svg">
<path d="M18.3333 10C18.3333 14.6024 14.6024 18.3333 9.99999 18.3333C5.39762 18.3333 1.66666 14.6024 1.66666 10C1.66666 5.39763 5.39762 1.66667 9.99999 1.66667C14.6024 1.66667 18.3333 5.39763 18.3333 10Z" fill="#868686"/>
<path fill-rule="evenodd" clip-rule="evenodd" d="M9.99999 6.04167C10.3452 6.04167 10.625 6.32149 10.625 6.66667V9.74112L12.5253 11.6414C12.7693 11.8855 12.7693 12.2812 12.5253 12.5253C12.2812 12.7694 11.8855 12.7694 11.6414 12.5253L9.55805 10.4419C9.44084 10.3247 9.37499 10.1658 9.37499 10V6.66667C9.37499 6.32149 9.65481 6.04167 9.99999 6.04167Z" fill="white"/>
</svg>
