<svg width="40" height="40" viewBox="0 0 40 40" fill="none" xmlns="http://www.w3.org/2000/svg">
<rect width="40" height="40" rx="20" fill="#444441"/>
<path d="M11.6665 20.0002C11.6665 16.8575 11.6665 15.2861 12.6428 14.3098C13.6191 13.3335 15.1905 13.3335 18.3332 13.3335H21.6665C24.8092 13.3335 26.3805 13.3335 27.3569 14.3098C28.3332 15.2861 28.3332 16.8575 28.3332 20.0002C28.3332 23.1429 28.3332 24.7142 27.3569 25.6905C26.3805 26.6668 24.8092 26.6668 21.6665 26.6668H18.3332C15.1905 26.6668 13.6191 26.6668 12.6428 25.6905C11.6665 24.7142 11.6665 23.1429 11.6665 20.0002Z" stroke="#868686" stroke-width="1.5"/>
<path d="M15 16.6665L16.7991 18.1657C18.3296 19.4412 19.0949 20.0789 20 20.0789C20.9051 20.0789 21.6704 19.4412 23.2009 18.1657L25 16.6665" stroke="#868686" stroke-width="1.5" stroke-linecap="round"/>
</svg>
