<svg width="60" height="60" viewBox="0 0 60 60" fill="none" xmlns="http://www.w3.org/2000/svg">
<path d="M57.9465 16.2371L42.6607 0.353672C42.443 0.127734 42.1428 0 41.8292 0H19.0468C16.4971 0 14.4228 2.07352 14.4228 4.62211V20.7693H5.18996C3.28238 20.7693 1.73047 22.3207 1.73047 24.2278V41.5416C1.73047 43.4486 3.28238 45 5.18996 45H14.4228V55.386C14.4228 57.9301 16.4971 60 19.0468 60H53.645C56.1946 60 58.269 57.9313 58.269 55.3886V17.0373C58.269 16.7389 58.1533 16.4522 57.9465 16.2371ZM42.1152 3.11496L54.6635 16.1538H42.1152V3.11496ZM5.18996 42.6923C4.5548 42.6923 4.03824 42.1761 4.03824 41.5416V24.2278C4.03824 23.5932 4.55492 23.0769 5.18996 23.0769H36.3479C36.9829 23.0769 37.4997 23.5932 37.4997 24.2278V41.5416C37.4997 42.1761 36.9829 42.6923 36.3479 42.6923H5.18996ZM55.9612 55.3886C55.9612 56.6589 54.9221 57.6923 53.6449 57.6923H19.0468C17.7696 57.6923 16.7305 56.6578 16.7305 55.3861V45H36.3478C38.2555 45 39.8074 43.4486 39.8074 41.5416V24.2278C39.8074 22.3207 38.2555 20.7693 36.3478 20.7693H16.7305V4.62211C16.7305 3.34582 17.7696 2.30766 19.0468 2.30766H39.8074V17.3077C39.8074 17.9449 40.3241 18.4615 40.9612 18.4615H55.9612V55.3886Z" fill="#868686"/>
<path d="M15.3319 30.8731C15.1155 30.24 14.8003 29.7049 14.3855 29.2676C13.971 28.8303 13.4728 28.5262 12.8913 28.3549C12.4587 28.2285 11.8301 28.1656 11.0051 28.1656H7.34766V38.0769H11.1132C11.8526 38.0769 12.4431 38.0072 12.8846 37.8671C13.4752 37.6779 13.9439 37.4142 14.2909 37.0762C14.7507 36.63 15.1044 36.0464 15.3525 35.3252C15.5552 34.7347 15.6565 34.0318 15.6565 33.2157C15.6564 32.2875 15.5482 31.5065 15.3319 30.8731ZM13.3847 34.9433C13.2497 35.3873 13.0748 35.706 12.8609 35.8998C12.6468 36.0936 12.3773 36.2313 12.0529 36.3123C11.8051 36.3755 11.4015 36.4069 10.8428 36.4069H9.34863V29.842H10.2477C11.0638 29.842 11.6113 29.8735 11.8908 29.9367C12.265 30.018 12.5736 30.1735 12.817 30.4031C13.0602 30.633 13.2497 30.9532 13.3847 31.3635C13.5199 31.7734 13.5878 32.3615 13.5878 33.128C13.5879 33.8942 13.52 34.4994 13.3847 34.9433Z" fill="#868686"/>
<path d="M34.4648 34.4328C34.2978 35.1585 34.0229 35.6905 33.6398 36.0283C33.2567 36.3663 32.7992 36.5354 32.2673 36.5354C31.5461 36.5354 30.9603 36.2694 30.5097 35.7379C30.0589 35.206 29.8335 34.3133 29.8335 33.0604C29.8335 31.8797 30.0623 31.0255 30.5198 30.4983C30.9773 29.9707 31.5733 29.7069 32.3079 29.7069C32.8398 29.7069 33.2916 29.8558 33.6634 30.1532C34.0353 30.4508 34.28 30.8564 34.397 31.3702L36.378 30.8967C36.1527 30.1035 35.8146 29.4952 35.3641 29.0714C34.6068 28.3549 33.6221 27.9966 32.4096 27.9966C31.0212 27.9966 29.9011 28.4529 29.0494 29.3657C28.1976 30.2785 27.7715 31.5594 27.7715 33.2091C27.7715 34.7685 28.1952 35.9979 29.0427 36.8971C29.8899 37.7963 30.9716 38.2459 32.2879 38.2459C33.3514 38.2459 34.2292 37.9834 34.9212 37.4582C35.613 36.9332 36.1076 36.1299 36.405 35.0481L34.4648 34.4328Z" fill="#868686"/>
<path d="M25.2463 29.3556C24.3693 28.4495 23.2011 27.9966 21.7406 27.9966C20.9338 27.9966 20.2218 28.1272 19.6043 28.3886C19.1401 28.5824 18.7129 28.8798 18.3232 29.2811C17.9332 29.682 17.6257 30.1351 17.4001 30.64C17.0981 31.3251 16.9473 32.1723 16.9473 33.1819C16.9473 34.7595 17.3823 35.9979 18.2519 36.897C19.1219 37.7962 20.294 38.2458 21.7678 38.2458C23.2236 38.2458 24.3864 37.7942 25.2564 36.8903C26.1261 35.9865 26.5611 34.7346 26.5611 33.1345C26.5611 31.521 26.1228 30.2613 25.2463 29.3556ZM23.7249 35.6735C23.2135 36.2481 22.5587 36.5354 21.7607 36.5354C20.9632 36.5354 20.3052 36.2459 19.7868 35.6669C19.2685 35.0876 19.0092 34.2369 19.0092 33.1146C19.0092 31.9743 19.2616 31.1213 19.7663 30.5556C20.2712 29.9899 20.9361 29.7069 21.7607 29.7069C22.5857 29.7069 23.2471 29.9864 23.7451 30.5455C24.2432 31.1043 24.4921 31.9518 24.4921 33.0874C24.4921 34.2369 24.2366 35.0988 23.7249 35.6735Z" fill="#868686"/>
</svg>
