<svg width="20" height="20" viewBox="0 0 20 20" fill="none" xmlns="http://www.w3.org/2000/svg">
<g clip-path="url(#clip0_0_21)">
<path fill-rule="evenodd" clip-rule="evenodd" d="M20 10.0614C20 4.50448 15.523 0 10 0C4.477 0 0 4.50448 0 10.0614C0 15.083 3.657 19.2454 8.438 20V12.9701H5.898V10.0614H8.438V7.84485C8.438 5.32347 9.93 3.93098 12.215 3.93098C13.309 3.93098 14.453 4.12718 14.453 4.12718V6.60227H13.193C11.95 6.60227 11.563 7.37801 11.563 8.17386V10.0614H14.336L13.893 12.9691H11.563V20C16.343 19.2454 20 15.083 20 10.0614Z" fill="#868686"/>
</g>
<defs>
<clipPath id="clip0_0_21">
<rect width="20" height="20" fill="white"/>
</clipPath>
</defs>
</svg>
