<svg width="20" height="20" viewBox="0 0 20 20" fill="none" xmlns="http://www.w3.org/2000/svg">
<g clip-path="url(#clip0_0_23)">
<path fill-rule="evenodd" clip-rule="evenodd" d="M0 8.88889C0 4.69889 -1.32455e-07 2.60333 1.30222 1.30222C2.60333 -1.32455e-07 4.69889 0 8.88889 0H11.1111C15.3011 0 17.3967 -1.32455e-07 18.6978 1.30222C20 2.60333 20 4.69889 20 8.88889V11.1111C20 15.3011 20 17.3967 18.6978 18.6978C17.3967 20 15.3011 20 11.1111 20H8.88889C4.69889 20 2.60333 20 1.30222 18.6978C-1.32455e-07 17.3967 0 15.3011 0 11.1111V8.88889ZM16.6667 5C16.6667 5.44203 16.4911 5.86595 16.1785 6.17851C15.866 6.49107 15.442 6.66667 15 6.66667C14.558 6.66667 14.134 6.49107 13.8215 6.17851C13.5089 5.86595 13.3333 5.44203 13.3333 5C13.3333 4.55797 13.5089 4.13405 13.8215 3.82149C14.134 3.50893 14.558 3.33333 15 3.33333C15.442 3.33333 15.866 3.50893 16.1785 3.82149C16.4911 4.13405 16.6667 4.55797 16.6667 5ZM12.2222 11.1111C12.2222 11.7005 11.9881 12.2657 11.5713 12.6825C11.1546 13.0992 10.5894 13.3333 10 13.3333C9.41063 13.3333 8.8454 13.0992 8.42865 12.6825C8.0119 12.2657 7.77778 11.7005 7.77778 11.1111C7.77778 10.5217 8.0119 9.95651 8.42865 9.53976C8.8454 9.12302 9.41063 8.88889 10 8.88889C10.5894 8.88889 11.1546 9.12302 11.5713 9.53976C11.9881 9.95651 12.2222 10.5217 12.2222 11.1111ZM14.4444 11.1111C14.4444 12.2899 13.9762 13.4203 13.1427 14.2538C12.3092 15.0873 11.1787 15.5556 10 15.5556C8.82126 15.5556 7.6908 15.0873 6.8573 14.2538C6.02381 13.4203 5.55556 12.2899 5.55556 11.1111C5.55556 9.93237 6.02381 8.80191 6.8573 7.96841C7.6908 7.13492 8.82126 6.66667 10 6.66667C11.1787 6.66667 12.3092 7.13492 13.1427 7.96841C13.9762 8.80191 14.4444 9.93237 14.4444 11.1111Z" fill="#868686"/>
</g>
<defs>
<clipPath id="clip0_0_23">
<rect width="20" height="20" fill="white"/>
</clipPath>
</defs>
</svg>
