<svg width="16" height="12" viewBox="0 0 16 12" fill="none" xmlns="http://www.w3.org/2000/svg">
<path d="M15.0711 5.32107C15.4853 5.32107 15.8211 5.65685 15.8211 6.07107C15.8211 6.48528 15.4853 6.82107 15.0711 6.82107L15.0711 6.07107L15.0711 5.32107ZM0.398602 6.6014C0.105709 6.3085 0.105709 5.83363 0.398602 5.54074L5.17157 0.767767C5.46447 0.474874 5.93934 0.474874 6.23223 0.767767C6.52513 1.06066 6.52513 1.53553 6.23223 1.82843L1.98959 6.07107L6.23223 10.3137C6.52513 10.6066 6.52513 11.0815 6.23223 11.3744C5.93934 11.6673 5.46447 11.6673 5.17157 11.3744L0.398602 6.6014ZM15.0711 6.07107L15.0711 6.82107L0.928932 6.82107L0.928932 6.07107L0.928932 5.32107L15.0711 5.32107L15.0711 6.07107Z" fill="white"/>
</svg>
