<svg width="20" height="20" viewBox="0 0 20 20" fill="none" xmlns="http://www.w3.org/2000/svg">
<path d="M1.66675 10.0002C1.66675 6.85747 1.66675 5.28612 2.64306 4.30981C3.61937 3.3335 5.19072 3.3335 8.33341 3.3335H11.6667C14.8094 3.3335 16.3808 3.3335 17.3571 4.30981C18.3334 5.28612 18.3334 6.85747 18.3334 10.0002C18.3334 13.1429 18.3334 14.7142 17.3571 15.6905C16.3808 16.6668 14.8094 16.6668 11.6667 16.6668H8.33341C5.19072 16.6668 3.61937 16.6668 2.64306 15.6905C1.66675 14.7142 1.66675 13.1429 1.66675 10.0002Z" stroke="#868686" stroke-width="1.5"/>
<path d="M5 6.6665L6.79908 8.16574C8.32961 9.44118 9.09488 10.0789 10 10.0789C10.9051 10.0789 11.6704 9.44118 13.2009 8.16574L15 6.6665" stroke="#868686" stroke-width="1.5" stroke-linecap="round"/>
</svg>
