<svg width="40" height="40" viewBox="0 0 40 40" fill="none" xmlns="http://www.w3.org/2000/svg">
<rect width="40" height="40" rx="20" fill="white"/>
<path d="M22.4697 16.4697C22.1768 16.7626 22.1768 17.2374 22.4697 17.5303C22.7626 17.8232 23.2374 17.8232 23.5303 17.5303L23 17L22.4697 16.4697ZM29.75 11C29.75 10.5858 29.4142 10.25 29 10.25H22.25C21.8358 10.25 21.5 10.5858 21.5 11C21.5 11.4142 21.8358 11.75 22.25 11.75H28.25V17.75C28.25 18.1642 28.5858 18.5 29 18.5C29.4142 18.5 29.75 18.1642 29.75 17.75V11ZM23 17L23.5303 17.5303L29.5303 11.5303L29 11L28.4697 10.4697L22.4697 16.4697L23 17Z" fill="#31312F"/>
<path d="M17.5303 23.5303C17.8232 23.2374 17.8232 22.7626 17.5303 22.4697C17.2374 22.1768 16.7626 22.1768 16.4697 22.4697L17 23L17.5303 23.5303ZM10.25 29C10.25 29.4142 10.5858 29.75 11 29.75L17.75 29.75C18.1642 29.75 18.5 29.4142 18.5 29C18.5 28.5858 18.1642 28.25 17.75 28.25L11.75 28.25L11.75 22.25C11.75 21.8358 11.4142 21.5 11 21.5C10.5858 21.5 10.25 21.8358 10.25 22.25L10.25 29ZM17 23L16.4697 22.4697L10.4697 28.4697L11 29L11.5303 29.5303L17.5303 23.5303L17 23Z" fill="#31312F"/>
<path d="M17.5303 16.4697C17.8232 16.7626 17.8232 17.2374 17.5303 17.5303C17.2374 17.8232 16.7626 17.8232 16.4697 17.5303L17 17L17.5303 16.4697ZM10.25 11C10.25 10.5858 10.5858 10.25 11 10.25H17.75C18.1642 10.25 18.5 10.5858 18.5 11C18.5 11.4142 18.1642 11.75 17.75 11.75H11.75V17.75C11.75 18.1642 11.4142 18.5 11 18.5C10.5858 18.5 10.25 18.1642 10.25 17.75V11ZM17 17L16.4697 17.5303L10.4697 11.5303L11 11L11.5303 10.4697L17.5303 16.4697L17 17Z" fill="#31312F"/>
<path d="M22.4697 23.5303C22.1768 23.2374 22.1768 22.7626 22.4697 22.4697C22.7626 22.1768 23.2374 22.1768 23.5303 22.4697L23 23L22.4697 23.5303ZM29.75 29C29.75 29.4142 29.4142 29.75 29 29.75L22.25 29.75C21.8358 29.75 21.5 29.4142 21.5 29C21.5 28.5858 21.8358 28.25 22.25 28.25L28.25 28.25L28.25 22.25C28.25 21.8358 28.5858 21.5 29 21.5C29.4142 21.5 29.75 21.8358 29.75 22.25L29.75 29ZM23 23L23.5303 22.4697L29.5303 28.4697L29 29L28.4697 29.5303L22.4697 23.5303L23 23Z" fill="#31312F"/>
</svg>
