<svg width="20" height="20" viewBox="0 0 20 20" fill="none" xmlns="http://www.w3.org/2000/svg">
<path fill-rule="evenodd" clip-rule="evenodd" d="M10 1.66667C6.3181 1.66667 3.33334 5.00215 3.33334 8.75C3.33334 12.4685 5.46111 16.5103 8.78089 18.062C9.55479 18.4238 10.4452 18.4238 11.2191 18.062C14.5389 16.5103 16.6667 12.4685 16.6667 8.75C16.6667 5.00215 13.6819 1.66667 10 1.66667ZM10 10C10.9205 10 11.6667 9.25381 11.6667 8.33333C11.6667 7.41286 10.9205 6.66667 10 6.66667C9.07953 6.66667 8.33334 7.41286 8.33334 8.33333C8.33334 9.25381 9.07953 10 10 10Z" fill="#868686"/>
</svg>
