<svg width="16" height="12" viewBox="0 0 16 12" fill="none" xmlns="http://www.w3.org/2000/svg">
    <path d="M0.928933 6.74998C0.514719 6.74998 0.178933 6.41419 0.178933 5.99998C0.178932 5.58576 0.514719 5.24998 0.928933 5.24998L0.928932 5.99998L0.928933 6.74998ZM15.6014 5.46965C15.8943 5.76254 15.8943 6.23741 15.6014 6.53031L10.8284 11.3033C10.5355 11.5962 10.0607 11.5962 9.76777 11.3033C9.47487 11.0104 9.47487 10.5355 9.76777 10.2426L14.0104 5.99998L9.76777 1.75734C9.47487 1.46444 9.47487 0.989569 9.76777 0.696676C10.0607 0.403784 10.5355 0.403783 10.8284 0.696676L15.6014 5.46965ZM0.928932 5.99998L0.928933 5.24998L15.0711 5.24998L15.0711 5.99998L15.0711 6.74998L0.928933 6.74998L0.928932 5.99998Z" fill="#31312F"/>
</svg>
