<svg width="58" height="60" viewBox="0 0 58 60" fill="none" xmlns="http://www.w3.org/2000/svg">
<path d="M56.9465 16.2371L41.6607 0.353672C41.443 0.127734 41.1428 0 40.8292 0H18.0468C15.4971 0 13.4228 2.07352 13.4228 4.62211V20.7693H4.18996C2.28238 20.7693 0.730469 22.3207 0.730469 24.2278V41.5416C0.730469 43.4486 2.28238 45 4.18996 45H13.4228V55.386C13.4228 57.9301 15.4971 60 18.0468 60H52.645C55.1946 60 57.269 57.9313 57.269 55.3886V17.0373C57.269 16.7389 57.1533 16.4522 56.9465 16.2371ZM41.1152 3.11496L53.6635 16.1538H41.1152V3.11496ZM4.18996 42.6923C3.5548 42.6923 3.03824 42.1761 3.03824 41.5416V24.2278C3.03824 23.5932 3.55492 23.0769 4.18996 23.0769H35.3479C35.9829 23.0769 36.4997 23.5932 36.4997 24.2278V41.5416C36.4997 42.1761 35.9829 42.6923 35.3479 42.6923H4.18996ZM54.9612 55.3886C54.9612 56.6589 53.9221 57.6923 52.6449 57.6923H18.0468C16.7696 57.6923 15.7305 56.6578 15.7305 55.3861V45H35.3478C37.2555 45 38.8074 43.4486 38.8074 41.5416V24.2278C38.8074 22.3207 37.2555 20.7693 35.3478 20.7693H15.7305V4.62211C15.7305 3.34582 16.7696 2.30766 18.0468 2.30766H38.8074V17.3077C38.8074 17.9449 39.3241 18.4615 39.9612 18.4615H54.9612V55.3886Z" fill="#868686"/>
</svg>
