<svg width="60" height="60" viewBox="0 0 60 60" fill="none" xmlns="http://www.w3.org/2000/svg">
<path d="M57.9465 16.2371L42.6607 0.353672C42.443 0.127734 42.1428 0 41.8292 0H19.0468C16.4971 0 14.4228 2.07352 14.4228 4.62211V20.7693H5.18996C3.28238 20.7693 1.73047 22.3207 1.73047 24.2278V41.5416C1.73047 43.4486 3.28238 45 5.18996 45H14.4228V55.386C14.4228 57.9301 16.4971 60 19.0468 60H53.645C56.1946 60 58.269 57.9313 58.269 55.3886V17.0373C58.269 16.7389 58.1533 16.4522 57.9465 16.2371ZM42.1152 3.11496L54.6635 16.1538H42.1152V3.11496ZM5.18996 42.6923C4.5548 42.6923 4.03824 42.1761 4.03824 41.5416V24.2278C4.03824 23.5932 4.55492 23.0769 5.18996 23.0769H36.348C36.9832 23.0769 37.4997 23.5932 37.4997 24.2278V41.5416C37.4997 42.1761 36.983 42.6923 36.348 42.6923H5.18996ZM55.9612 55.3886C55.9612 56.6589 54.9221 57.6923 53.6449 57.6923H19.0468C17.7696 57.6923 16.7305 56.6578 16.7305 55.3861V45H36.348C38.2556 45 39.8075 43.4486 39.8075 41.5416V24.2278C39.8075 22.3207 38.2556 20.7693 36.348 20.7693H16.7305V4.62211C16.7305 3.34582 17.7696 2.30766 19.0468 2.30766H39.8074V17.3077C39.8074 17.9449 40.3241 18.4615 40.9612 18.4615H55.9612V55.3886Z" fill="#868686"/>
<path d="M15.5256 29.2844C15.1425 28.7864 14.667 28.463 14.0991 28.3142C13.7295 28.2151 12.9362 28.1655 11.7192 28.1655H8.50781V38.0769H10.509V34.3381H11.8139C12.7199 34.3381 13.4118 34.2908 13.8895 34.1961C14.2411 34.1195 14.587 33.9629 14.9273 33.7262C15.2677 33.4896 15.5482 33.1639 15.7691 32.7493C15.99 32.3347 16.1004 31.8231 16.1004 31.2146C16.1003 30.4258 15.9087 29.7825 15.5256 29.2844ZM13.8117 32.0124C13.6608 32.2333 13.4523 32.3955 13.1863 32.4992C12.9203 32.6029 12.393 32.6547 11.6043 32.6547H10.509V29.8422H11.4758C12.197 29.8422 12.677 29.8647 12.9158 29.9099C13.2403 29.9685 13.5086 30.1149 13.7203 30.3493C13.9322 30.5837 14.0381 30.8812 14.0381 31.2417C14.0382 31.5347 13.9627 31.7915 13.8117 32.0124Z" fill="#868686"/>
<path d="M25.7209 30.8733C25.5046 30.24 25.189 29.7048 24.7744 29.2676C24.3598 28.8303 23.8616 28.5261 23.2802 28.3548C22.8476 28.2286 22.2188 28.1655 21.394 28.1655H17.7363V38.0769H21.5021C22.2414 38.0769 22.8318 38.0071 23.2734 37.8672C23.8639 37.678 24.3327 37.4143 24.6797 37.0762C25.1394 36.63 25.4932 36.0464 25.7412 35.3252C25.944 34.7347 26.0454 34.0316 26.0454 33.2158C26.0454 32.2874 25.9372 31.5065 25.7209 30.8733ZM23.7737 34.9433C23.6385 35.3873 23.4639 35.7062 23.2498 35.8999C23.0357 36.0937 22.7664 36.2312 22.4419 36.3123C22.194 36.3754 21.7905 36.407 21.2317 36.407H19.7375V29.8422H20.6367C21.4525 29.8422 22.0002 29.8738 22.2796 29.9369C22.6536 30.018 22.9624 30.1735 23.2058 30.4035C23.4492 30.6334 23.6385 30.9533 23.7737 31.3635C23.9089 31.7736 23.9766 32.3618 23.9766 33.1281C23.9766 33.8942 23.9089 34.4993 23.7737 34.9433Z" fill="#868686"/>
<path d="M34.5505 29.8422V28.1655H27.7559V38.0769H29.7571V33.8649H33.8947V32.1882H29.7571V29.8422H34.5505Z" fill="#868686"/>
</svg>
