<svg width="20" height="20" viewBox="0 0 20 20" fill="none" xmlns="http://www.w3.org/2000/svg">
<path d="M13.7968 10.7551L13.4173 11.1325C13.4173 11.1325 12.5151 12.0296 10.0526 9.58103C7.59014 7.13251 8.49229 6.23548 8.49229 6.23548L8.73131 5.99782C9.3201 5.41237 9.37561 4.47243 8.86191 3.78624L7.81109 2.38257C7.17528 1.53326 5.94667 1.42107 5.21792 2.14569L3.90992 3.44626C3.54856 3.80556 3.30642 4.27133 3.33578 4.788C3.4109 6.10985 4.00897 8.95388 7.34617 12.2721C10.8852 15.791 14.2057 15.9309 15.5636 15.8043C15.9931 15.7642 16.3666 15.5455 16.6676 15.2462L17.8514 14.0691C18.6505 13.2746 18.4252 11.9124 17.4028 11.3567L15.8107 10.4912C15.1394 10.1262 14.3215 10.2334 13.7968 10.7551Z" fill="#868686"/>
</svg>
