<svg width="16" height="12" viewBox="0 0 16 12" fill="none" xmlns="http://www.w3.org/2000/svg">
    <path d="M15.0711 6.74998C15.4853 6.74998 15.8211 6.41419 15.8211 5.99998C15.8211 5.58576 15.4853 5.24998 15.0711 5.24998L15.0711 5.99998L15.0711 6.74998ZM0.398602 5.46965C0.105709 5.76254 0.105709 6.23741 0.398602 6.53031L5.17157 11.3033C5.46447 11.5962 5.93934 11.5962 6.23223 11.3033C6.52513 11.0104 6.52513 10.5355 6.23223 10.2426L1.98959 5.99998L6.23223 1.75734C6.52513 1.46444 6.52513 0.989569 6.23223 0.696676C5.93934 0.403784 5.46447 0.403783 5.17157 0.696676L0.398602 5.46965ZM15.0711 5.99998L15.0711 5.24998L0.928932 5.24998L0.928932 5.99998L0.928932 6.74998L15.0711 6.74998L15.0711 5.99998Z" fill="#31312F"/>
</svg>
