<svg width="16" height="12" viewBox="0 0 16 12" fill="none" xmlns="http://www.w3.org/2000/svg">
    <path d="M0.928933 5.32107C0.514719 5.32107 0.178933 5.65685 0.178933 6.07107C0.178932 6.48528 0.514719 6.82107 0.928933 6.82107L0.928932 6.07107L0.928933 5.32107ZM15.6014 6.6014C15.8943 6.3085 15.8943 5.83363 15.6014 5.54074L10.8284 0.767767C10.5355 0.474874 10.0607 0.474874 9.76777 0.767767C9.47487 1.06066 9.47487 1.53553 9.76777 1.82843L14.0104 6.07107L9.76777 10.3137C9.47487 10.6066 9.47487 11.0815 9.76777 11.3744C10.0607 11.6673 10.5355 11.6673 10.8284 11.3744L15.6014 6.6014ZM0.928932 6.07107L0.928933 6.82107L15.0711 6.82107L15.0711 6.07107L15.0711 5.32107L0.928933 5.32107L0.928932 6.07107Z" fill="white"/>
</svg>
