<svg xmlns="http://www.w3.org/2000/svg" viewBox="0 0 640 640" id="Square-X-Twitter--Streamline-Font-Awesome" height="640" width="640">

    <!--! Font Awesome Free 6.5.2 by @fontawesome - https://fontawesome.com License - https://fontawesome.com/license/free (Icons: CC BY 4.0, Fonts: SIL OFL 1.1, Code: MIT License) Copyright 2024 Fonticons, Inc.-->
    <path d="M96 6.4C46.580000000000005 6.4 6.4 46.580000000000005 6.4 96v448.00000000000006c0 49.42 40.18 89.6 89.6 89.6h448.00000000000006c49.42 0 89.6 -40.18 89.6 -89.6V96c0 -49.42 -40.18 -89.6 -89.6 -89.6H96ZM511.94 124 366.62 290.04 537.56 516h-133.84L299 378.94 179.01999999999998 516h-66.5l155.4 -177.66L103.98 124h137.20000000000002l94.78 125.3 109.47999999999999 -125.3h66.5Zm-52.919999999999995 352.24L221.16000000000003 161.66000000000003h-39.620000000000005l240.52 314.58h36.82Z" fill="#868686" stroke-width="1.4286"/>
</svg>