<svg width="60" height="60" viewBox="0 0 60 60" fill="none" xmlns="http://www.w3.org/2000/svg">
<path d="M57.9465 16.2371L42.6607 0.353672C42.443 0.127734 42.1428 0 41.8292 0H19.0468C16.4971 0 14.4228 2.07352 14.4228 4.62211V20.7693H5.18996C3.28238 20.7693 1.73047 22.3207 1.73047 24.2278V41.5416C1.73047 43.4486 3.28238 45 5.18996 45H14.4228V55.386C14.4228 57.9301 16.4971 60 19.0468 60H53.645C56.1946 60 58.269 57.9313 58.269 55.3886V17.0373C58.269 16.7389 58.1533 16.4522 57.9465 16.2371ZM42.1152 3.11496L54.6635 16.1538H42.1152V3.11496ZM5.18996 42.6923C4.5548 42.6923 4.03824 42.1761 4.03824 41.5416V24.2278C4.03824 23.5932 4.55492 23.0769 5.18996 23.0769H36.3479C36.9829 23.0769 37.4997 23.5932 37.4997 24.2278V41.5416C37.4997 42.1761 36.9829 42.6923 36.3479 42.6923H5.18996ZM55.9612 55.3886C55.9612 56.6589 54.9221 57.6923 53.6449 57.6923H19.0468C17.7696 57.6923 16.7305 56.6578 16.7305 55.3861V45H36.3478C38.2555 45 39.8074 43.4486 39.8074 41.5416V24.2278C39.8074 22.3207 38.2555 20.7693 36.3478 20.7693H16.7305V4.62211C16.7305 3.34582 17.7696 2.30766 19.0468 2.30766H39.8074V17.3077C39.8074 17.9449 40.3241 18.4615 40.9612 18.4615H55.9612V55.3886Z" fill="#868686"/>
<path d="M33.3567 33.6116C33.093 33.1855 32.7279 32.8498 32.2615 32.604C31.795 32.3585 31.0751 32.1209 30.1015 31.8909C29.1279 31.661 28.515 31.4401 28.2626 31.2284C28.0641 31.0616 27.9649 30.8607 27.9649 30.6266C27.9649 30.3696 28.0707 30.1644 28.2829 30.0112C28.6119 29.7724 29.0672 29.653 29.6484 29.653C30.2118 29.653 30.6345 29.7647 30.9162 29.9876C31.1978 30.2106 31.3814 30.5769 31.4671 31.0863L33.4682 30.9983C33.4368 30.0879 33.1068 29.3599 32.4779 28.8148C31.849 28.2693 30.9128 27.9967 29.6689 27.9967C28.9071 27.9967 28.257 28.1114 27.7184 28.3414C27.1798 28.5714 26.7673 28.9059 26.4811 29.3453C26.1949 29.7848 26.0516 30.2571 26.0516 30.7619C26.0516 31.5459 26.3559 32.2109 26.9646 32.7564C27.3973 33.1438 28.1498 33.4706 29.2227 33.7365C30.0564 33.9439 30.5906 34.0882 30.8248 34.1692C31.1675 34.2909 31.4074 34.434 31.5448 34.5984C31.6823 34.7632 31.751 34.9624 31.751 35.197C31.751 35.5619 31.5877 35.8809 31.2609 36.1535C30.9341 36.4261 30.4486 36.5625 29.8039 36.5625C29.1955 36.5625 28.7121 36.4093 28.3539 36.1026C27.9956 35.7963 27.758 35.3163 27.6405 34.6626L25.6934 34.8519C25.824 35.9607 26.2253 36.8048 26.8969 37.384C27.5685 37.9629 28.5307 38.2526 29.7838 38.2526C30.6445 38.2526 31.3637 38.132 31.9406 37.8908C32.5175 37.65 32.9634 37.2813 33.279 36.7854C33.5946 36.2898 33.7525 35.7579 33.7525 35.1899C33.7522 34.5635 33.6204 34.0373 33.3567 33.6116Z" fill="#868686"/>
<path d="M19.7983 36.407V28.2468H17.7969V38.0769H24.7743V36.407H19.7983Z" fill="#868686"/>
<path d="M13.3277 32.9792L16.4108 28.1656H14.0919L12.1448 31.35L10.157 28.1656H7.81793L10.8871 32.9048L7.5 38.0769H9.9L12.1042 34.649L14.3013 38.0769H16.7149L13.3277 32.9792Z" fill="#868686"/>
</svg>
