<svg xmlns="http://www.w3.org/2000/svg" viewBox="0 0 640 640" fill="#868686" id="Brand-Youtube--Streamline-Tabler-Filled" height="640" width="640">
    <path d="M480 80a133.33333333333334 133.33333333333334 0 0 1 133.33333333333334 133.33333333333334v213.33333333333334a133.33333333333334 133.33333333333334 0 0 1 -133.33333333333334 133.33333333333334H160a133.33333333333334 133.33333333333334 0 0 1 -133.33333333333334 -133.33333333333334V213.33333333333334a133.33333333333334 133.33333333333334 0 0 1 133.33333333333334 -133.33333333333334zM240 240v160a26.666666666666668 26.666666666666668 0 0 0 40.373333333333335 22.853333333333335l133.33333333333334 -80a26.666666666666668 26.666666666666668 0 0 0 0 -45.70666666666667l-133.33333333333334 -80A26.666666666666668 26.666666666666668 0 0 0 240 240z" stroke-width="26.6667"></path>
</svg>