<svg width="40" height="41" viewBox="0 0 40 41" fill="none" xmlns="http://www.w3.org/2000/svg">
<g clip-path="url(#clip0_315_1373)">
<path d="M20 40.5C31.0457 40.5 40 31.5457 40 20.5C40 9.4543 31.0457 0.5 20 0.5C8.9543 0.5 0 9.4543 0 20.5C0 31.5457 8.9543 40.5 20 40.5Z" fill="#3A559F"/>
<path d="M24.9957 18.6055L24.6785 21.3927C24.6654 21.5199 24.6066 21.6378 24.5135 21.7239C24.4203 21.81 24.2992 21.8585 24.1732 21.86H21.306L21.2917 30.1236C21.2927 30.2216 21.2556 30.3159 21.1885 30.3864C21.1215 30.4568 21.0298 30.4976 20.9333 30.5H18.0285C17.9802 30.5 17.9324 30.4902 17.888 30.471C17.8435 30.4518 17.8033 30.4237 17.7699 30.3884C17.7364 30.3531 17.7103 30.3113 17.6932 30.2654C17.676 30.2196 17.6682 30.1708 17.6701 30.1218V21.86H15.5197C15.4522 21.8593 15.3854 21.8451 15.3233 21.8182C15.2612 21.7913 15.2049 21.7523 15.1576 21.7033C15.1104 21.6544 15.0731 21.5964 15.0479 21.5328C15.0227 21.4693 15.0101 21.4013 15.0108 21.3327L15.0001 18.5455C14.9991 18.4767 15.0115 18.4084 15.0366 18.3445C15.0616 18.2806 15.0989 18.2223 15.1461 18.173C15.1934 18.1237 15.2498 18.0844 15.312 18.0572C15.3743 18.03 15.4412 18.0155 15.509 18.0145H17.6701V15.3236C17.6701 12.2 19.4979 10.5 22.1787 10.5H24.3757C24.4436 10.5007 24.5107 10.515 24.5732 10.5421C24.6357 10.5692 24.6923 10.6085 24.7397 10.6579C24.7871 10.7072 24.8245 10.7655 24.8497 10.8295C24.8749 10.8936 24.8874 10.962 24.8864 11.0309V13.3764C24.8874 13.4453 24.8749 13.5137 24.8497 13.5777C24.8245 13.6417 24.7871 13.7001 24.7397 13.7494C24.6923 13.7987 24.6357 13.8381 24.5732 13.8652C24.5107 13.8923 24.4436 13.9066 24.3757 13.9073H23.0281C21.5712 13.9073 21.2881 14.6345 21.2881 15.6855V18.0145H24.4904C24.5632 18.0155 24.635 18.032 24.7011 18.0631C24.7671 18.0942 24.826 18.1392 24.8737 18.195C24.9214 18.2508 24.957 18.3162 24.978 18.387C24.9991 18.4577 25.0051 18.5322 24.9957 18.6055Z" fill="white"/>
</g>
<defs>
<clipPath id="clip0_315_1373">
<rect width="40" height="40" fill="white" transform="translate(0 0.5)"/>
</clipPath>
</defs>
</svg>
