<svg width="12" height="12" viewBox="0 0 12 12" fill="none" xmlns="http://www.w3.org/2000/svg">
<path d="M0.46967 10.4697C0.176777 10.7626 0.176777 11.2374 0.46967 11.5303C0.762563 11.8232 1.23744 11.8232 1.53033 11.5303L1 11L0.46967 10.4697ZM11.75 1C11.75 0.585786 11.4142 0.25 11 0.25L4.25 0.25C3.83579 0.25 3.5 0.585786 3.5 1C3.5 1.41421 3.83579 1.75 4.25 1.75L10.25 1.75V7.75C10.25 8.16421 10.5858 8.5 11 8.5C11.4142 8.5 11.75 8.16421 11.75 7.75V1ZM1 11L1.53033 11.5303L11.5303 1.53033L11 1L10.4697 0.46967L0.46967 10.4697L1 11Z" fill="#FFFFFF"/>
</svg>
