<svg width="40" height="40" viewBox="0 0 40 40" fill="none" xmlns="http://www.w3.org/2000/svg">
<rect width="40" height="40" rx="20" fill="white"/>
<path d="M14.4697 24.4697C14.1768 24.7626 14.1768 25.2374 14.4697 25.5303C14.7626 25.8232 15.2374 25.8232 15.5303 25.5303L15 25L14.4697 24.4697ZM25.75 15C25.75 14.5858 25.4142 14.25 25 14.25L18.25 14.25C17.8358 14.25 17.5 14.5858 17.5 15C17.5 15.4142 17.8358 15.75 18.25 15.75L24.25 15.75V21.75C24.25 22.1642 24.5858 22.5 25 22.5C25.4142 22.5 25.75 22.1642 25.75 21.75V15ZM15 25L15.5303 25.5303L25.5303 15.5303L25 15L24.4697 14.4697L14.4697 24.4697L15 25Z" fill="#31312F"/>
</svg>
