<svg width="70" height="70" viewBox="0 0 70 70" fill="none" xmlns="http://www.w3.org/2000/svg">
<path d="M58.3528 45.9222C54.1479 43.7993 49.5276 42.3375 44.978 41.4193C43.902 40.2644 43.1618 38.8376 42.8374 37.2928C45.6537 35.0903 47.8097 31.7866 48.991 27.851C52.2527 27.3572 53.1009 22.3452 51.8072 19.6007C57.747 -6.42807 12.409 -6.48208 18.2076 19.544C16.8465 22.2871 17.6934 27.3668 20.993 27.8536C22.1587 31.7892 24.3303 35.093 27.1466 37.2954C26.8097 38.9083 26.0229 40.3926 24.8771 41.5766C22.7236 41.9531 21.398 42.2703 21.3695 42.3014C12.5469 44.7299 4.71761 47.4592 5.79249 58.3197C5.3446 73.8759 64.6338 73.8904 64.2098 58.3202C64.6758 53.42 63.0936 48.1566 58.3528 45.9222ZM35.0306 2.14064C45.2654 1.99968 51.293 8.73116 49.9658 17.816C49.3607 17.5245 48.6339 17.5118 47.9825 17.6586C47.7247 16.8849 47.3043 15.6443 46.5821 13.6302C46.4904 13.4518 46.3404 13.2903 46.221 13.1274C36.9981 6.99087 33.148 18.3693 24.8667 13.0939C24.8177 13.063 24.7841 13.0345 24.7403 13.001C24.3173 12.8932 23.8433 12.9648 23.5747 13.3467C22.7174 15.0729 22.2671 16.9861 21.9834 17.6588C21.3579 17.4987 20.6716 17.5119 20.0801 17.7851C18.7525 8.70792 24.7993 2.00255 35.0306 2.14064ZM22.788 26.4067C22.2627 25.0781 21.391 26.0229 20.8202 25.5867C19.5255 24.7066 19.2036 20.2068 20.8668 19.7347C21.7316 19.4502 22.4954 20.5521 23.3064 19.9204C23.5337 19.7414 23.6856 19.4837 23.732 19.1982C23.8094 18.85 24.3588 17.2459 24.9596 15.5876C34.3986 19.9194 36.4288 10.045 44.7253 14.6952C45.819 17.3656 45.8427 18.782 46.6748 19.9179C47.4831 20.5535 48.2524 19.4403 49.1148 19.7321C49.7776 19.9178 50.4044 21.1789 50.2496 22.8785C50.1207 24.2944 49.5868 25.1996 49.1638 25.5839C48.5495 25.9827 47.6164 25.082 47.196 26.4041C43.4347 41.6859 26.5344 41.6895 22.788 26.4067ZM29.037 38.5565C32.7309 40.654 37.2557 40.654 40.9496 38.5565C41.4069 40.1439 42.2312 41.6018 43.3558 42.8119C42.8065 44.5425 38.8529 47.8178 34.9997 50.2085C31.1311 47.8177 27.1775 44.5347 26.6411 42.8119C27.7607 41.5999 28.5813 40.1424 29.037 38.5565ZM7.91724 58.3196C7.12878 49.66 11.8759 47.5125 19.1516 45.1355C18.8163 46.525 18.5581 47.9319 18.3779 49.3496C13.8663 50.7111 14.1102 54.8625 14.8188 58.6677C13.8287 60.0138 15.5023 61.8468 16.9311 60.9655C17.9963 60.3841 17.9554 58.7425 16.882 58.1957C16.4813 55.4071 15.7183 51.9599 19.537 51.3926C23.1552 51.2327 23.2224 54.7376 23.4973 57.3885C22.5694 58.1905 22.9879 59.7899 24.1706 60.0748C25.7266 60.5483 26.9034 58.4185 25.6199 57.3885C25.3859 53.8093 24.8277 49.8171 20.5211 49.2389C20.7546 47.6204 21.0897 46.0183 21.5243 44.4418C22.2141 44.2607 22.5316 44.1564 24.7662 43.7481C26.1357 46.959 31.8354 50.7373 33.9423 52.0269V67.857C21.5556 67.3496 7.92749 64.8159 7.91724 58.3196ZM62.0769 58.3196C62.0736 64.8031 48.4487 67.3528 36.0467 67.8568V52.0267C38.1873 50.7037 43.9644 46.8686 45.2564 43.6552C46.3012 43.8534 47.311 44.1126 48.3074 44.3773C48.9132 46.593 49.3239 48.8574 49.535 51.1447C44.6028 52.9199 47.1181 60.2992 52.1072 58.6928C55.8793 57.5377 55.5213 51.7318 51.6601 51.0209C51.4723 49.0233 51.1457 47.0413 50.6827 45.0891C57.9955 47.4503 62.8936 49.6095 62.0769 58.3196ZM50.8246 53.0352C53.2478 53.0592 53.2539 56.7359 50.8229 56.7473C48.3904 56.7305 48.4066 53.055 50.8298 53.0352H50.8246Z" fill="#4CD30E"/>
</svg>
