<svg width="40" height="40" viewBox="0 0 40 40" fill="none" xmlns="http://www.w3.org/2000/svg">
<rect width="40" height="40" rx="20" fill="#F5F5F5"/>
<path d="M13.3333 18.3332C13.3333 15.1905 13.3333 13.6191 14.3096 12.6428C15.2859 11.6665 16.8572 11.6665 19.9999 11.6665C23.1426 11.6665 24.714 11.6665 25.6903 12.6428C26.6666 13.6191 26.6666 15.1905 26.6666 18.3332V21.6665C26.6666 24.8092 26.6666 26.3805 25.6903 27.3569C24.714 28.3332 23.1426 28.3332 19.9999 28.3332C16.8572 28.3332 15.2859 28.3332 14.3096 27.3569C13.3333 26.3805 13.3333 24.8092 13.3333 21.6665V18.3332Z" stroke="#868686" stroke-width="1.5"/>
<path d="M22.5 25.8335H17.5" stroke="#868686" stroke-width="1.5" stroke-linecap="round"/>
</svg>
