<svg width="14" height="18" viewBox="0 0 14 18" fill="none" xmlns="http://www.w3.org/2000/svg">
<path fill-rule="evenodd" clip-rule="evenodd" d="M7 0.666666C3.3181 0.666666 0.333336 4.00215 0.333336 7.75C0.333336 11.4685 2.46111 15.5103 5.78089 17.062C6.55479 17.4238 7.44522 17.4238 8.21911 17.062C11.5389 15.5103 13.6667 11.4685 13.6667 7.75C13.6667 4.00215 10.6819 0.666666 7 0.666666ZM7 9C7.92048 9 8.66667 8.25381 8.66667 7.33333C8.66667 6.41286 7.92048 5.66667 7 5.66667C6.07953 5.66667 5.33334 6.41286 5.33334 7.33333C5.33334 8.25381 6.07953 9 7 9Z" fill="#868686"/>
</svg>
