<svg width="40" height="41" viewBox="0 0 40 41" fill="none" xmlns="http://www.w3.org/2000/svg">
<g clip-path="url(#clip0_315_1368)">
<path d="M20 40.5C31.0457 40.5 40 31.5457 40 20.5C40 9.4543 31.0457 0.5 20 0.5C8.9543 0.5 0 9.4543 0 20.5C0 31.5457 8.9543 40.5 20 40.5Z" fill="#1C8ADB"/>
<path d="M25.8441 13.5541L25.5462 13.6619L9.38164 19.4759C9.26709 19.5113 9.16753 19.5836 9.09856 19.6815C9.0296 19.7794 8.99513 19.8974 9.00056 20.017C9.00598 20.1366 9.051 20.251 9.12855 20.3423C9.20611 20.4335 9.31181 20.4966 9.42909 20.5214L13.6134 21.665L14.394 23.952L15.1746 26.2391C15.2194 26.3512 15.291 26.4507 15.3831 26.5289C15.4752 26.6072 15.585 26.6618 15.7031 26.688C15.8211 26.7143 15.9438 26.7113 16.0604 26.6795C16.1771 26.6477 16.2842 26.5879 16.3724 26.5054L18.5342 24.4666L22.779 27.3402C23.2978 27.693 24.0375 27.4316 24.17 26.8501L26.9814 14.4493C27.1188 13.835 26.4708 13.3303 25.8441 13.5541ZM23.7805 16.3067L16.4772 22.2661L16.1335 22.5471C16.058 22.6069 16.0087 22.6936 15.9961 22.7889L15.9192 23.4227L15.7081 25.2034C15.7098 25.2251 15.7028 25.2465 15.6887 25.2631C15.6746 25.2796 15.6545 25.2899 15.6328 25.2916C15.6111 25.2933 15.5896 25.2864 15.573 25.2723C15.5564 25.2582 15.5461 25.2381 15.5444 25.2165L14.9504 23.4375L14.3367 21.616C14.3108 21.5341 14.3142 21.4457 14.3465 21.3661C14.3787 21.2865 14.4378 21.2206 14.5135 21.1798L22.113 16.8311L23.5433 16.0143C23.7511 15.8934 23.9638 16.1564 23.7805 16.3067Z" fill="white"/>
</g>
<defs>
<clipPath id="clip0_315_1368">
<rect width="40" height="40" fill="white" transform="translate(0 0.5)"/>
</clipPath>
</defs>
</svg>
