<svg width="40" height="41" viewBox="0 0 40 41" fill="none" xmlns="http://www.w3.org/2000/svg">
<path d="M20 40.5C31.0457 40.5 40 31.5457 40 20.5C40 9.4543 31.0457 0.5 20 0.5C8.9543 0.5 0 9.4543 0 20.5C0 31.5457 8.9543 40.5 20 40.5Z" fill="#6F3FAA"/>
<path d="M31.5505 14.0114V13.9818C31.2823 12.8955 30.5823 11.7727 29.6641 10.8273C28.5914 9.71819 27.2255 8.84774 25.9209 8.56592H25.8937C22.0033 7.82047 18.0068 7.82047 14.1164 8.56592H14.0891C11.6664 9.09092 9.03685 11.6227 8.45048 13.9818V14.0114C7.73005 17.282 7.73005 20.6703 8.45048 23.9409V23.9682C8.86866 25.65 10.3232 27.4182 12.0005 28.4864C12.5482 28.8433 13.1445 29.1196 13.7709 29.3068V31.9386C13.7718 32.149 13.8353 32.3543 13.9533 32.5284C14.0713 32.7025 14.2385 32.8375 14.4335 32.9163C14.6285 32.995 14.8426 33.0139 15.0484 32.9705C15.2542 32.9272 15.4424 32.8235 15.5891 32.6727L18.2573 29.9C18.8346 29.9318 19.4164 29.95 19.9937 29.95C21.9698 29.9494 23.9414 29.7622 25.8823 29.3909H25.9096C28.3255 28.8636 30.9573 26.3318 31.5391 23.9727V23.9455C32.264 20.6742 32.2678 17.2843 31.5505 14.0114ZM29.4391 23.4546C29.0482 24.9932 27.0528 26.9091 25.4641 27.2614C23.4007 27.6566 21.3007 27.8281 19.2005 27.7727C19.18 27.7715 19.1596 27.7749 19.1407 27.7828C19.1217 27.7907 19.1049 27.8028 19.0914 27.8182L17.1437 29.8182L15.0709 31.9432C15.0378 31.9782 14.9949 32.0025 14.9477 32.0129C14.9006 32.0233 14.8515 32.0193 14.8067 32.0014C14.7619 31.9835 14.7235 31.9526 14.6964 31.9126C14.6694 31.8727 14.655 31.8255 14.655 31.7773V27.4136C14.6551 27.3786 14.6428 27.3446 14.6204 27.3176C14.598 27.2906 14.5668 27.2723 14.5323 27.2659C14.2009 27.1873 13.8815 27.065 13.5823 26.9023C12.2323 26.1818 10.8709 24.7046 10.5573 23.4546C9.90766 20.4982 9.90766 17.436 10.5573 14.4796C10.9459 12.9477 12.9528 11.0364 14.53 10.6818C18.142 9.99073 21.8522 9.99073 25.4641 10.6818C26.3391 10.8773 27.3391 11.5432 28.1209 12.3614C28.7641 13.0273 29.2573 13.7955 29.4391 14.4864C30.0878 17.4406 30.0878 20.5003 29.4391 23.4546Z" fill="white"/>
<path d="M25.5194 23.6818C25.2242 24.3557 24.7165 24.9144 24.074 25.2727C23.8724 25.3583 23.6631 25.4245 23.449 25.4705C23.2058 25.3977 22.974 25.3477 22.7672 25.2591C21.0443 24.5887 19.4405 23.6456 18.0172 22.4659C17.5944 22.1054 17.1972 21.7158 16.8285 21.3C15.9182 20.2516 15.1537 19.085 14.5558 17.8318C14.2649 17.2386 14.0194 16.625 13.7694 16.0136C13.5422 15.4568 13.8785 14.8773 14.224 14.4614C14.5621 14.0757 14.9781 13.7658 15.4444 13.5523C15.6086 13.4698 15.7964 13.4474 15.9753 13.4889C16.1542 13.5304 16.313 13.6332 16.424 13.7796C17.0047 14.432 17.5165 15.1425 17.9513 15.9C18.0882 16.1203 18.1351 16.3848 18.0822 16.6387C18.0293 16.8926 17.8807 17.1164 17.6672 17.2636C17.5535 17.3432 17.4399 17.4341 17.3422 17.5227C17.2458 17.5941 17.1628 17.6818 17.0967 17.7818C17.0397 17.8755 17.0052 17.981 16.9957 18.0902C16.9862 18.1994 17.0021 18.3093 17.0422 18.4114C17.4808 19.6182 18.1467 20.625 19.1422 21.3318C19.4791 21.57 19.842 21.769 20.224 21.925C20.4734 22.0607 20.7537 22.1296 21.0376 22.125C21.5331 22.0659 21.6967 21.5182 22.0422 21.2364C22.2007 21.1065 22.397 21.0313 22.6017 21.0219C22.8064 21.0125 23.0087 21.0694 23.1785 21.1841C23.5467 21.4114 23.9013 21.6682 24.2558 21.9182C24.6065 22.1575 24.9441 22.4155 25.2672 22.6909C25.4183 22.8007 25.5262 22.9598 25.5723 23.1408C25.6184 23.3218 25.5997 23.5132 25.5194 23.6818Z" fill="white"/>
<path d="M20.6503 12.7909H20.3594C20.4526 12.7864 20.5503 12.7909 20.6503 12.7909Z" fill="white"/>
<path d="M25.6814 19.6023C25.4541 19.6023 25.3428 19.4091 25.3269 19.1977C25.2973 18.7818 25.2746 18.3636 25.2178 17.95C25.1195 17.2521 24.8765 16.5825 24.5041 15.9841C24.1214 15.3607 23.6122 14.8246 23.0093 14.4104C22.4064 13.9962 21.7233 13.7132 21.0041 13.5796C20.6769 13.5205 20.3428 13.5068 20.0132 13.4727C19.8041 13.45 19.5291 13.4364 19.4837 13.1773C19.4769 13.127 19.4809 13.0758 19.4955 13.0271C19.5101 12.9785 19.5348 12.9335 19.5682 12.8952C19.6015 12.8569 19.6427 12.8262 19.6888 12.8051C19.735 12.784 19.7852 12.7729 19.8359 12.7727C19.8904 12.7696 19.9451 12.7696 19.9996 12.7727C20.993 12.7811 21.969 13.0344 22.8412 13.5101C23.7133 13.9859 24.4547 14.6693 24.9996 15.5C25.4298 16.1696 25.7218 16.9183 25.8587 17.7023C25.945 18.1932 25.9769 18.6977 26.0155 19.1977C26.0233 19.2467 26.0205 19.2968 26.0074 19.3447C25.9944 19.3926 25.9713 19.4371 25.9397 19.4753C25.9081 19.5136 25.8687 19.5447 25.8242 19.5666C25.7797 19.5885 25.731 19.6006 25.6814 19.6023Z" fill="white"/>
<path d="M24.4502 18.5409C24.4489 18.6084 24.4398 18.6755 24.4229 18.7409C24.4031 18.8066 24.3635 18.8646 24.3095 18.907C24.2555 18.9494 24.1898 18.9742 24.1212 18.9779C24.0527 18.9816 23.9847 18.9641 23.9264 18.9278C23.8682 18.8915 23.8225 18.8382 23.7957 18.775C23.7706 18.6832 23.7591 18.5883 23.7616 18.4932C23.7669 17.9848 23.6662 17.481 23.4661 17.0136C23.4207 16.9136 23.3707 16.8114 23.3138 16.7136C22.9885 16.1529 22.5056 15.7001 21.9252 15.4114C21.575 15.246 21.2031 15.1312 20.8207 15.0705C20.6525 15.0432 20.4843 15.0273 20.3161 15.0046C20.2723 15.0024 20.2295 14.9912 20.1902 14.9718C20.1509 14.9524 20.116 14.9251 20.0877 14.8916C20.0593 14.8582 20.0382 14.8193 20.0255 14.7773C20.0128 14.7354 20.0088 14.6913 20.0138 14.6477C20.0139 14.6032 20.0233 14.5592 20.0415 14.5185C20.0598 14.4779 20.0864 14.4416 20.1197 14.412C20.1529 14.3823 20.1921 14.3601 20.2346 14.3467C20.277 14.3333 20.3219 14.329 20.3661 14.3341C21.0334 14.3599 21.6872 14.5305 22.282 14.8341C23.0084 15.1996 23.6009 15.785 23.9752 16.5068C24.186 16.9283 24.3272 17.3811 24.3934 17.8477C24.4056 17.9086 24.4147 17.97 24.4207 18.0318C24.432 18.1682 24.4366 18.3046 24.4479 18.4727C24.4479 18.4886 24.4502 18.5091 24.4502 18.5409Z" fill="white"/>
<path d="M22.8954 18.2273C22.8826 18.2849 22.8527 18.3373 22.8098 18.3778C22.7669 18.4184 22.7128 18.4451 22.6545 18.4546H22.6045C22.5301 18.4594 22.4561 18.4398 22.3937 18.3988C22.3314 18.3578 22.2841 18.2976 22.2591 18.2273C22.2449 18.19 22.2358 18.151 22.2318 18.1114C22.2198 17.9584 22.1971 17.8065 22.1636 17.6568C22.096 17.3537 21.9238 17.0842 21.6772 16.8955C21.558 16.8099 21.4251 16.7453 21.2841 16.7046C21.1045 16.6523 20.9159 16.6659 20.7386 16.6227C20.651 16.6072 20.5731 16.5576 20.522 16.4848C20.4709 16.4119 20.4507 16.3218 20.4659 16.2341C20.4828 16.1501 20.5297 16.0752 20.5979 16.0233C20.6661 15.9714 20.7509 15.9462 20.8363 15.9523C21.8772 16.0273 22.6545 16.5273 22.8545 17.6432C22.8751 17.7468 22.8895 17.8515 22.8977 17.9568C22.9104 18.0466 22.9097 18.1377 22.8954 18.2273Z" fill="white"/>
</svg>
