<svg width="40" height="41" viewBox="0 0 40 41" fill="none" xmlns="http://www.w3.org/2000/svg">
<g clip-path="url(#clip0_315_1361)">
<path d="M20 40.5C31.0457 40.5 40 31.5457 40 20.5C40 9.4543 31.0457 0.5 20 0.5C8.9543 0.5 0 9.4543 0 20.5C0 31.5457 8.9543 40.5 20 40.5Z" fill="#29A71A"/>
<path d="M27.824 11.6761C25.9777 9.81142 23.5259 8.66787 20.9107 8.45172C18.2955 8.23557 15.6892 8.96106 13.5618 10.4973C11.4345 12.0336 9.9261 14.2795 9.30882 16.83C8.69153 19.3804 9.00597 22.0675 10.1954 24.4066L9.02782 30.0751C9.01571 30.1315 9.01536 30.1898 9.02682 30.2463C9.03827 30.3029 9.06126 30.3565 9.09437 30.4038C9.14287 30.4755 9.21209 30.5307 9.29281 30.5621C9.37352 30.5934 9.46187 30.5994 9.54607 30.5792L15.1016 29.2624C17.4341 30.4217 20.1022 30.7159 22.6312 30.0927C25.1603 29.4694 27.3862 27.9692 28.9129 25.8588C30.4395 23.7484 31.168 21.1649 30.9686 18.5678C30.7692 15.9708 29.6549 13.5287 27.824 11.6761ZM26.0918 25.5015C24.8144 26.7754 23.1694 27.6163 21.3887 27.9057C19.6081 28.1951 17.7815 27.9185 16.1664 27.1148L15.392 26.7316L11.9861 27.5382L11.9962 27.4959L12.702 24.0678L12.3229 23.3196C11.4976 21.6989 11.2065 19.8585 11.4912 18.0622C11.7759 16.2659 12.6219 14.6057 13.9079 13.3196C15.5237 11.7042 17.715 10.7968 19.9998 10.7968C22.2847 10.7968 24.4759 11.7042 26.0918 13.3196C26.1056 13.3354 26.1204 13.3502 26.1362 13.364C27.732 14.9835 28.6229 17.1682 28.6146 19.4419C28.6063 21.7155 27.6994 23.8937 26.0918 25.5015Z" fill="white"/>
<path d="M25.7854 22.9869C25.368 23.6443 24.7086 24.4489 23.8798 24.6486C22.4279 24.9994 20.1996 24.6606 17.4269 22.0754L17.3926 22.0452C14.9546 19.7847 14.3214 17.9032 14.4747 16.411C14.5594 15.564 15.2651 14.7977 15.86 14.2976C15.9541 14.2174 16.0656 14.1602 16.1857 14.1308C16.3058 14.1013 16.4311 14.1004 16.5516 14.128C16.6721 14.1556 16.7845 14.2111 16.8798 14.2899C16.975 14.3687 17.0505 14.4687 17.1002 14.582L17.9976 16.5985C18.0559 16.7293 18.0775 16.8734 18.0601 17.0155C18.0427 17.1576 17.9869 17.2923 17.8988 17.4051L17.445 17.994C17.3477 18.1155 17.2889 18.2635 17.2763 18.4187C17.2638 18.574 17.2979 18.7294 17.3744 18.8651C17.6285 19.3108 18.2375 19.9661 18.9131 20.5731C19.6713 21.2587 20.5122 21.8859 21.0446 22.0996C21.187 22.1578 21.3436 22.172 21.4942 22.1404C21.6448 22.1088 21.7825 22.0328 21.8895 21.9222L22.4158 21.3918C22.5174 21.2917 22.6437 21.2203 22.7818 21.1848C22.92 21.1494 23.065 21.1513 23.2023 21.1902L25.3337 21.7951C25.4513 21.8312 25.5591 21.8937 25.6488 21.9778C25.7385 22.0619 25.8079 22.1654 25.8514 22.2804C25.895 22.3954 25.9117 22.5189 25.9003 22.6413C25.8889 22.7638 25.8496 22.882 25.7854 22.9869Z" fill="white"/>
</g>
<defs>
<clipPath id="clip0_315_1361">
<rect width="40" height="40" fill="white" transform="translate(0 0.5)"/>
</clipPath>
</defs>
</svg>
